<svg width="199" height="46" viewBox="0 0 199 46" fill="none" xmlns="http://www.w3.org/2000/svg">
<g clip-path="url(#clip0_964_4869)">
<path d="M24.231 7.46311C20.8628 7.1805 17.4914 7.97053 14.5994 9.72016C11.7073 11.4698 9.44281 14.0893 8.12984 17.204C6.81687 20.3187 6.52273 23.7689 7.2895 27.0608C8.05628 30.3528 9.84468 33.3179 12.3988 35.5319C14.9529 37.7458 18.1419 39.0951 21.5094 39.3868C24.8769 39.6784 28.2503 38.8974 31.1471 37.1555C34.0438 35.4137 36.3153 32.8002 37.6366 29.689C38.9579 26.5779 39.2613 23.1285 38.5034 19.8345" stroke="#BAC4D7" stroke-width="5.29143" stroke-linecap="round" stroke-linejoin="round"/>
<rect x="31.0391" y="5.81055" width="7.40311" height="7.40311" rx="3.70156" fill="#0058FF"/>
<path d="M60.0477 3.4377C56.4519 3.69597 53.5973 5.39243 52.1258 8.15484C50.953 10.3528 50.8129 13.3402 51.7718 15.7264C52.8855 18.4924 55.3565 20.4397 58.5725 21.0777C59.3987 21.2436 60.022 21.299 61.0435 21.299C63.0314 21.299 64.6172 20.956 66.1477 20.1925C68.7589 18.8907 70.437 16.5894 70.8759 13.7053C70.9607 13.1521 70.9717 11.6105 70.8981 11.0684C70.4406 7.83398 68.4823 5.38136 65.3696 4.16067C63.8502 3.5632 61.9397 3.30129 60.0477 3.4377ZM62.0799 7.39868C64.2411 7.68635 65.8158 8.85916 66.406 10.6258C66.5977 11.2011 66.6605 11.6141 66.6605 12.3038C66.6605 13.4397 66.4133 14.2842 65.8269 15.1621C65.5909 15.5162 64.9749 16.132 64.6209 16.3681C63.6178 17.0392 62.445 17.3712 61.0805 17.375C59.9519 17.375 59.0962 17.1979 58.2074 16.7811C57.6579 16.523 57.2412 16.2315 56.8208 15.8075C56.1348 15.1215 55.729 14.3544 55.5225 13.3733C55.445 12.9897 55.4339 11.7284 55.5078 11.3265C55.8065 9.67064 56.8872 8.40189 58.543 7.7638C58.9487 7.60527 59.5204 7.46143 59.9741 7.39868C60.4535 7.3323 61.5967 7.3323 62.0799 7.39868Z" fill="#000814"/>
<path d="M86.1072 3.43751C83.2231 3.66259 80.8111 4.77628 79.24 6.61673C78.1778 7.85955 77.5288 9.31639 77.2818 11.0128C77.1932 11.6288 77.1932 12.9823 77.2854 13.5944C77.4329 14.627 77.6652 15.3979 78.0857 16.2645C78.5135 17.1497 78.9265 17.7399 79.6272 18.4553C80.317 19.1597 81.0362 19.6872 81.9213 20.1408C83.496 20.9447 85.0857 21.2988 87.1177 21.2988C89.1056 21.2951 90.7025 20.9485 92.2219 20.1887C93.3283 19.6355 94.4015 18.7872 95.1097 17.9095C96.1165 16.6629 96.7546 15.1434 96.9684 13.4838C97.0497 12.8753 97.0312 11.5218 96.9352 10.9022C96.7509 9.71834 96.3784 8.67467 95.7884 7.70465C95.1392 6.62779 94.1619 5.65414 93.037 4.9571C91.7942 4.1826 90.2931 3.68092 88.6667 3.48919C88.0581 3.41917 86.7047 3.38962 86.1072 3.43751ZM88.4454 7.43548C89.3158 7.59401 90.2452 7.97383 90.8427 8.41276C91.7057 9.05085 92.3142 9.94705 92.5834 10.9833C92.683 11.3705 92.6977 11.496 92.7125 12.1008C92.7419 13.104 92.6129 13.79 92.2625 14.5164C91.7795 15.5122 91.0603 16.2314 90.0497 16.7292C89.5075 16.9948 89.0577 17.146 88.4454 17.2714C88.0656 17.3452 87.9217 17.3563 87.0993 17.3563C86.2436 17.3526 86.144 17.3452 85.7125 17.2531C84.8938 17.0797 84.1525 16.7773 83.5403 16.3679C83.1862 16.1318 82.5703 15.516 82.3343 15.1619C81.9766 14.627 81.7405 14.0666 81.5966 13.4211C81.5009 12.9748 81.5009 11.625 81.6004 11.1788C82.0541 9.10981 83.6694 7.73785 86.0482 7.39486C86.5423 7.32484 87.9734 7.3506 88.4454 7.43548Z" fill="#000814"/>
<path d="M126.776 4.21661C126.798 4.87667 126.861 5.19389 127.053 5.61797C127.458 6.51053 128.318 7.20015 129.28 7.39567C129.516 7.44356 129.859 7.45462 131.264 7.45462H132.961V14.2776V21.1004H133.58C134.491 21.1004 134.993 21.0083 135.506 20.7502C136.365 20.3186 137.018 19.4446 137.184 18.5041C137.232 18.2201 137.239 17.4824 137.239 12.8171V7.45462H140.344H143.446L143.424 6.89035C143.409 6.51417 143.376 6.2265 143.324 6.01628C143.055 4.91729 142.192 4.04322 141.052 3.72235L140.761 3.63748L133.757 3.62641L126.754 3.61914L126.776 4.21661Z" fill="#000814"/>
<path d="M106.093 3.71108C105.44 3.84385 104.85 4.30854 104.544 4.92814C104.286 5.45179 104.304 4.81007 104.304 13.3442V21.0634H104.942C105.65 21.0634 106.067 21.008 106.476 20.8678C107.299 20.5802 108.04 19.8574 108.365 19.0201C108.538 18.5739 108.582 18.2088 108.582 17.2426V16.3796H110.791H113L113.152 16.6192C113.236 16.7483 113.745 17.5265 114.288 18.3416C115.132 19.614 115.317 19.8721 115.589 20.1414C116.076 20.6244 116.696 20.9306 117.371 21.0228C117.651 21.0634 121.306 21.0819 121.306 21.0449C121.306 21.0376 120.495 19.8389 119.506 18.3822C118.514 16.9254 117.677 15.6898 117.64 15.6383L117.577 15.5387L117.865 15.3838C119.008 14.7568 119.812 13.938 120.362 12.8427C121.203 11.1756 121.217 8.78212 120.406 7.06716C119.525 5.20474 117.688 4.11302 114.815 3.74427C114.372 3.68531 113.86 3.67788 110.334 3.67046C107.018 3.66318 106.307 3.67046 106.093 3.71108ZM114.225 7.58355C115.833 7.83059 116.615 8.67527 116.534 10.073C116.489 10.8179 116.316 11.2347 115.87 11.6773C115.519 12.0239 115.147 12.2305 114.59 12.378C114.015 12.5292 113.709 12.5439 111.083 12.5439H108.582V10.036V7.52822H111.23C113.362 7.52822 113.941 7.53929 114.225 7.58355Z" fill="#000814"/>
<path d="M71.3286 29.0426C71.2529 29.0521 70.9972 29.0853 70.77 29.1137C69.615 29.2557 68.4316 29.729 67.5369 30.406C67.1677 30.6805 66.5476 31.329 66.2967 31.6982C65.5819 32.7539 65.26 33.9373 65.3121 35.3337C65.3452 36.342 65.5204 37.0379 65.9322 37.8662C67.1109 40.2047 69.8233 41.4923 72.9191 41.1751C75.3286 40.9337 77.1984 39.755 78.164 37.8662C78.6043 37.0142 78.7936 36.1669 78.7936 35.097C78.7984 33.3976 78.2303 31.9917 77.0942 30.8746C75.8966 29.6959 74.2729 29.0805 72.2517 29.0379C71.8209 29.0284 71.4091 29.0284 71.3286 29.0426ZM73.2457 31.7598C73.4682 31.8119 73.8611 31.9586 74.1215 32.0864C74.9404 32.4888 75.4942 33.1089 75.783 33.961C75.9534 34.4675 75.9913 35.2532 75.8777 35.8355C75.6078 37.1846 74.5522 38.2023 73.0943 38.5053C71.4753 38.8461 69.7807 38.3633 68.9144 37.3124C68.6067 36.9384 68.3558 36.4461 68.247 35.9964C68.1334 35.5467 68.1381 34.5953 68.247 34.1834C68.6115 32.8201 69.6576 31.9397 71.2055 31.6888C71.7546 31.5988 72.7108 31.632 73.2457 31.7598Z" fill="#0058FF"/>
<path d="M165.458 29.0621C164.454 29.1899 163.739 29.3934 162.92 29.7911C161.287 30.5911 160.203 31.9686 159.796 33.7721C159.678 34.3023 159.654 35.533 159.754 36.12C160.076 38.0797 161.273 39.6655 163.058 40.5129C165.117 41.488 167.886 41.4596 169.931 40.4371C171.346 39.7271 172.412 38.5152 172.885 37.0667C173.103 36.3993 173.15 36.0443 173.15 35.0502C173.15 34.165 173.141 34.0703 173.017 33.5969C172.795 32.7401 172.525 32.1674 172.052 31.5283C171.129 30.2928 169.68 29.4502 167.967 29.152C167.337 29.0431 166.007 28.9958 165.458 29.0621ZM167.635 31.7603C167.862 31.8123 168.255 31.9638 168.53 32.1011C168.937 32.2999 169.088 32.4088 169.382 32.7023C169.978 33.2987 170.258 33.9425 170.319 34.8466C170.371 35.6703 170.182 36.3946 169.746 37.0573C169.301 37.7247 168.554 38.2265 167.645 38.4679C167.247 38.5721 167.086 38.591 166.452 38.5957C165.548 38.5957 165.093 38.501 164.388 38.1508C163.124 37.5259 162.457 36.3377 162.537 34.8608C162.636 33.1378 163.834 31.9307 165.704 31.6656C166.168 31.5993 167.176 31.6514 167.635 31.7603Z" fill="#0058FF"/>
<path d="M52.8906 35.1432V41.084H54.3107H55.7308V38.8592V36.6343H59.0681H62.4053V35.4036V34.1728H59.0681H55.7308V32.9657V31.7586H59.6598H63.5888V30.4805V29.2024H58.2397H52.8906V35.1432Z" fill="#0058FF"/>
<path d="M81.4336 32.6833C81.4336 36.2525 81.4525 36.7543 81.6229 37.417C82.1294 39.4052 83.6395 40.7069 85.9069 41.114C86.262 41.1803 86.6217 41.1992 87.327 41.1992C88.4111 41.1992 88.927 41.1282 89.7033 40.8726C90.5933 40.5744 91.2229 40.2004 91.8051 39.6229C92.4868 38.9412 92.8465 38.2596 93.1069 37.1803C93.1779 36.8868 93.1921 36.4135 93.2063 33.0241L93.2252 29.2041H91.7767H90.3329V32.7685C90.3329 36.1436 90.3282 36.3567 90.243 36.6927C90.1152 37.1898 89.9448 37.5069 89.6134 37.8478C89.2821 38.1933 88.8371 38.4347 88.3116 38.5484C87.8099 38.662 86.7637 38.6525 86.2951 38.5342C85.2489 38.2643 84.6052 37.6016 84.3969 36.5791C84.3306 36.2667 84.3211 35.7034 84.3211 32.707V29.2041H82.8774H81.4336V32.6833Z" fill="#0058FF"/>
<path d="M96.4414 35.1432V41.084H97.8615H99.2816V37.4343C99.2816 35.342 99.3006 33.7941 99.3242 33.8036C99.3479 33.8083 100.744 35.342 102.43 37.2024C104.115 39.0627 105.601 40.7006 105.734 40.8331L105.975 41.084H107.315H108.654V35.1432V29.2024H107.211H105.767L105.757 32.8663L105.743 36.5349L102.453 32.871L99.1633 29.2072H97.8047L96.4414 29.2024V35.1432Z" fill="#0058FF"/>
<path d="M112.299 35.1491V41.0898L115.177 41.0709C118.206 41.052 118.448 41.0378 119.418 40.8058C121.766 40.2425 123.399 38.7987 123.915 36.8201C124.105 36.1005 124.147 35.6603 124.119 34.794C124.09 33.9846 124.029 33.6153 123.825 33.0094C123.215 31.1964 121.709 29.9657 119.489 29.4686C118.429 29.232 117.951 29.2035 115.011 29.2035H112.299V35.1491ZM118.713 31.8923C120.015 32.2426 120.838 33.052 121.085 34.2213C121.179 34.6757 121.156 35.7644 121.037 36.1857C120.796 37.0473 120.27 37.6911 119.489 38.0745C118.704 38.4626 118.268 38.5289 116.502 38.5289H115.186V35.1396V31.7503L116.763 31.7692C118.183 31.7881 118.372 31.8023 118.713 31.8923Z" fill="#0058FF"/>
<path d="M130.854 29.4959C130.774 29.6616 129.519 32.3267 128.066 35.4272L125.42 41.0603L126.916 41.0745C127.773 41.0793 128.431 41.065 128.454 41.0414C128.478 41.0177 128.681 40.5964 128.909 40.1088L129.32 39.2142L132.468 39.2L135.612 39.1905L136.057 40.1372L136.501 41.084H138.012C138.84 41.084 139.517 41.0698 139.517 41.0461C139.517 41.0272 138.229 38.3621 136.662 35.1195L133.808 29.2261L132.402 29.2119L130.996 29.2024L130.854 29.4959ZM133.429 34.6272C133.969 35.7633 134.404 36.7006 134.39 36.7101C134.381 36.7195 133.496 36.7243 132.426 36.7195L130.48 36.7053L131.436 34.6367C131.962 33.4959 132.407 32.5633 132.421 32.5633C132.435 32.5633 132.89 33.4911 133.429 34.6272Z" fill="#0058FF"/>
<path d="M139.518 30.4805V31.7586H141.6H143.683V36.4213V41.084L145.118 41.0745L146.547 41.0603L146.561 36.4071L146.571 31.7586H148.654H150.736V30.4805V29.2024H145.127H139.518V30.4805Z" fill="#0058FF"/>
<path d="M153.672 35.1432V41.084H155.116H156.559V35.1432V29.2024H155.116H153.672V35.1432Z" fill="#0058FF"/>
<path d="M176.203 35.1432V41.084H177.623H179.043L179.053 37.4201L179.067 33.7562L182.381 37.4201L185.694 41.0793L187.057 41.084H188.416V35.1432V29.2024H186.972H185.528L185.519 32.871L185.505 36.5396L182.201 32.871L178.901 29.2024H177.552H176.203V35.1432Z" fill="#0058FF"/>
<path d="M193.209 26.7662H192.099V29.6299H191.349V26.7662H190.254V26.2207H193.209V26.7662ZM194.61 26.2207L195.542 28.6829L196.47 26.2207H197.451V29.6299H196.694V28.6829L196.777 27.0692L195.796 29.6299H195.284L194.307 27.073L194.383 28.6829V29.6299H193.637V26.2207H194.61V26.2207Z" fill="#0058FF"/>
</g>
<defs>
<clipPath id="clip0_964_4869">
<rect width="198.587" height="45.4563" fill="white" transform="translate(0 0.271484)"/>
</clipPath>
</defs>
</svg>
